<?xml version="1.0" encoding="utf-8"?>
<!-- Generator: Adobe Illustrator 25.2.1, SVG Export Plug-In . SVG Version: 6.00 Build 0)  -->
<svg version="1.1" id="Layer_1" xmlns="http://www.w3.org/2000/svg" xmlns:xlink="http://www.w3.org/1999/xlink" x="0px" y="0px"
	 viewBox="0 0 640 640" style="enable-background:new 0 0 640 640;" xml:space="preserve">
<style type="text/css">
	.st0{fill:url(#SVGID_1_);}
	.st1{fill:url(#SVGID_2_);}
	.st2{fill:url(#SVGID_3_);}
	.st3{fill:url(#SVGID_4_);}
	.st4{fill:url(#SVGID_5_);}
	.st5{fill:url(#SVGID_6_);}
	.st6{opacity:0.28;}
	.st7{fill:#F1F1F1;}
	.st8{fill:url(#SVGID_7_);}
	.st9{fill:url(#SVGID_8_);}
	.st10{fill:url(#SVGID_9_);}
	.st11{fill:url(#SVGID_10_);}
	.st12{fill:url(#SVGID_11_);}
</style>
<g>
	
		<linearGradient id="SVGID_1_" gradientUnits="userSpaceOnUse" x1="-229.141" y1="-247.1356" x2="-298.7924" y2="-194.3193" gradientTransform="matrix(-0.9859 -0.1675 0.1675 -0.9859 -13.9383 115.517)">
		<stop  offset="0" style="stop-color:#FCC736"/>
		<stop  offset="1" style="stop-color:#FA9614"/>
	</linearGradient>
	<path class="st0" d="M244.36,382.97c-9.09,25.38-32,29.65-58.52,20.6c-6.36-2.17-10.69-8.03-10.87-14.75
		c-0.83-30.55,22.99-43.35,43.94-51.1L244.36,382.97z"/>
	
		<linearGradient id="SVGID_2_" gradientUnits="userSpaceOnUse" x1="277.6151" y1="-402.7811" x2="123.0524" y2="-285.5772" gradientTransform="matrix(-0.7071 0.7071 -0.7071 -0.7071 183.7046 4.5222)">
		<stop  offset="0" style="stop-color:#02A9CF"/>
		<stop  offset="1" style="stop-color:#135C7D"/>
	</linearGradient>
	<path class="st1" d="M340.61,333.4c34.26,49.05,12.57,95.99-37.87,132.35c-12.1,8.72-28.27,9.03-40.66,0.73
		c-56.35-37.74-48.93-97.28-36.06-145.14L340.61,333.4z"/>
	
		<linearGradient id="SVGID_3_" gradientUnits="userSpaceOnUse" x1="456.556" y1="-185.4138" x2="563.2388" y2="-185.4138" gradientTransform="matrix(0.1529 0.9882 -0.9882 0.1529 92.5174 -83.6307)">
		<stop  offset="0" style="stop-color:#F85D45"/>
		<stop  offset="1" style="stop-color:#E93A57"/>
	</linearGradient>
	<path class="st2" d="M334.68,341.42c0,0,98.58-27.01,69.44,64.78s-109.45-15.26-109.45-15.26L334.68,341.42z"/>
	
		<linearGradient id="SVGID_4_" gradientUnits="userSpaceOnUse" x1="638.7399" y1="-90.5707" x2="484.1772" y2="26.6332" gradientTransform="matrix(0.5787 0.8155 -0.8155 0.5787 32.3685 -110.2586)">
		<stop  offset="0" style="stop-color:#FCC736"/>
		<stop  offset="1" style="stop-color:#FA9614"/>
	</linearGradient>
	<path class="st3" d="M337.24,265.32c54.1-25.56,96.74,3.69,124.14,59.51c6.57,13.39,4.17,29.38-6.09,40.21
		c-46.64,49.23-104.1,31.95-149.13,11.24L337.24,265.32z"/>
	<linearGradient id="SVGID_5_" gradientUnits="userSpaceOnUse" x1="232.3985" y1="230.8594" x2="328.211" y2="230.8594">
		<stop  offset="0" style="stop-color:#F85D45"/>
		<stop  offset="1" style="stop-color:#E93A57"/>
	</linearGradient>
	<path class="st4" d="M232.87,240.81c0,0-10.44-91.2,67.03-52.74s-28.57,95.05-28.57,95.05L232.87,240.81z"/>
	<linearGradient id="SVGID_6_" gradientUnits="userSpaceOnUse" x1="432.1697" y1="177.6206" x2="277.6071" y2="294.8245">
		<stop  offset="0" style="stop-color:#02A9CF"/>
		<stop  offset="1" style="stop-color:#135C7D"/>
	</linearGradient>
	<path class="st5" d="M276.16,236.9c10.46-58.91,58.99-76.76,120.37-66.81c14.72,2.39,26.37,13.6,29.27,28.23
		c13.16,66.53-34.19,103.39-77.13,128.13L276.16,236.9z"/>
	<circle class="st6" cx="280.3" cy="320.23" r="93.03"/>
	<circle class="st7" cx="272.25" cy="310.7" r="79.85"/>
</g>
<g>
	<g>
		<linearGradient id="SVGID_7_" gradientUnits="userSpaceOnUse" x1="-394.2288" y1="182.7942" x2="-329.3072" y2="415.562">
			<stop  offset="0" style="stop-color:#FFDC00"/>
			<stop  offset="1" style="stop-color:#FF8600"/>
		</linearGradient>
		<path class="st8" d="M-463.22,310.1c0,0,84.71-164.68,161.51-170.22c0,0-65.71,34.84-95.8,346.78L-463.22,310.1z"/>
		<linearGradient id="SVGID_8_" gradientUnits="userSpaceOnUse" x1="-446.9913" y1="265.8951" x2="-396.7244" y2="446.1205">
			<stop  offset="0" style="stop-color:#000000;stop-opacity:0.2"/>
			<stop  offset="1" style="stop-color:#000000;stop-opacity:0"/>
		</linearGradient>
		<path class="st9" d="M-424.17,245.36c0,0,1.33,161.34,26.66,241.3l-65.71-176.56C-463.22,310.1-427.87,244.74-424.17,245.36z"/>
	</g>
	<linearGradient id="SVGID_9_" gradientUnits="userSpaceOnUse" x1="-568.5052" y1="208.6817" x2="-498.7147" y2="458.9062">
		<stop  offset="0" style="stop-color:#72F800"/>
		<stop  offset="1" style="stop-color:#67C300"/>
	</linearGradient>
	<path class="st10" d="M-657.98,223.01c0,0,97.38,113.22,146.47,254.14l114.01,9.5c0,0-60.94-194.88-110.76-261.9
		c-7.41-9.96-17.82-17.3-29.69-20.93C-562.84,196.2-611.38,188.62-657.98,223.01z"/>
	<linearGradient id="SVGID_10_" gradientUnits="userSpaceOnUse" x1="-579.3436" y1="212.9167" x2="-514.5672" y2="445.164">
		<stop  offset="0" style="stop-color:#000000;stop-opacity:0.2"/>
		<stop  offset="1" style="stop-color:#000000;stop-opacity:0"/>
	</linearGradient>
	<path class="st11" d="M-488.14,477.97c0,0-48.19-163.85-151.53-266.51c0,0,33.04-11.49,66.58,12.95
		c10.37,7.56,18.71,17.55,24.79,28.85c20.97,38.98,93.12,175.4,102.4,224.71H-488.14z"/>
	<linearGradient id="SVGID_11_" gradientUnits="userSpaceOnUse" x1="-574.2744" y1="191.4546" x2="-498.8407" y2="461.9119">
		<stop  offset="0" style="stop-color:#CFF655"/>
		<stop  offset="1" style="stop-color:#67C300"/>
	</linearGradient>
	<path class="st12" d="M-468.06,500.12c0,0-56.12-190.81-176.46-310.36c0,0,38.48-13.38,77.53,15.08
		c12.07,8.8,21.79,20.44,28.87,33.6c24.42,45.39,108.44,204.26,119.25,261.68H-468.06z"/>
</g>
</svg>
